<svg id="bar" enable-background="new 0 0 300 300" height="512" viewBox="0 0 300 300" width="512" xmlns="http://www.w3.org/2000/svg"><path d="m262 154h-35.121c-2.198-2.437-5.346-4-8.879-4h-40.4c-3.533 0-6.681 1.563-8.879 4h-33.842c-2.198-2.437-5.346-4-8.879-4h-40.4c-3.581 0-6.764 1.609-8.965 4.104-.177-.024-.333-.104-.516-.104h-38.119c-2.209 0-4 1.791-4 4v12c0 2.209 1.791 4 4 4h4v96c0 2.209 1.791 4 4 4s4-1.791 4-4v-96h35.6 8.4v12h-3.6c-9.043 0-16.4 7.357-16.4 16.4 0 2.209 1.791 4 4 4h5.057l-9.412 62.605c-.328 2.184 1.176 4.221 3.361 4.549.201.031.4.045.6.045 1.945 0 3.652-1.422 3.949-3.406l4.84-32.193h38.41l4.84 32.193c.297 1.984 2.004 3.406 3.949 3.406.199 0 .398-.014.6-.045 2.186-.328 3.689-2.365 3.361-4.549l-9.412-62.605h5.857c2.209 0 4-1.791 4-4 0-9.043-7.357-16.4-16.4-16.4h-3.6v-12h8 51.6 8.4v12h-3.6c-9.043 0-16.4 7.357-16.4 16.4 0 2.209 1.791 4 4 4h5.057l-9.413 62.604c-.328 2.186 1.176 4.223 3.359 4.551.203.031.402.045.602.045 1.945 0 3.652-1.422 3.949-3.404l4.841-32.196h38.409l4.84 32.193c.297 1.984 2.004 3.406 3.949 3.406.199 0 .398-.014.6-.045 2.186-.328 3.689-2.365 3.361-4.549l-9.412-62.605h5.858c2.209 0 4-1.791 4-4 0-9.043-7.357-16.4-16.4-16.4h-3.6v-12h8 32v96c0 2.209 1.791 4 4 4s4-1.791 4-4v-96h4c2.209 0 4-1.791 4-4v-12c0-2.209-1.791-4-4-4zm-96.4 8c0 1.409.289 2.743.737 4h-29.074c.448-1.257.737-2.591.737-4zm-123.6 0h31.6c0 1.409.289 2.743.737 4h-32.337zm45.597 68 .601-4h34.802l.601 4zm34.201-12h-32.396l1.744-11.6h28.909zm7.186-19.6h-45.968c1.424-2.619 4.199-4.4 7.385-4.4h7.599 16 7.6c3.185 0 5.961 1.781 7.384 4.4zm-18.984-12.4h-8v-12h8zm4-20h-16-12.4c-2.205 0-4-1.795-4-4s1.795-4 4-4h40.4c2.205 0 4 1.795 4 4s-1.795 4-4 4zm65.598 64 .601-4h34.801l.601 4zm34.2-12h-32.395l1.744-11.6h28.907zm7.186-19.6h-45.969c1.424-2.619 4.199-4.4 7.385-4.4h7.6 16 7.6c3.185 0 5.961 1.781 7.384 4.4zm-18.984-12.4h-8v-12h8zm4-20h-16-12.4c-2.205 0-4-1.795-4-4s1.795-4 4-4h40.4c2.205 0 4 1.795 4 4s-1.795 4-4 4zm52 0h-28.737c.448-1.257.737-2.591.737-4h28z"/><path d="m203.324 120.973c.709.639 1.623 1.002 2.578 1.025l16.285.4c.033.002.064.002.098.002.961 0 1.893-.348 2.621-.979l12.914-11.201c1.336-1.158 1.752-3.057 1.023-4.67l-12.843-28.412v-3.138c0-5.208-3.354-9.606-8-11.263v-32.737c0-2.209-1.791-4-4-4s-4 1.791-4 4v32.737c-4.646 1.656-8 6.055-8 11.263v3.212l-11.699 28.467c-.643 1.562-.232 3.361 1.023 4.492zm10.676-50.973c2.205 0 4 1.795 4 4h-8c0-2.205 1.795-4 4-4zm-5.318 12h10.736l9.041 20h-14.459c-2.209 0-4 1.791-4 4s1.791 4 4 4h11.865l-5.031 4.363-13.258-.326-8.805-7.926z"/><path d="m135.324 120.973c.709.639 1.623 1.002 2.578 1.025l16.285.4c.033.002.064.002.098.002.961 0 1.893-.348 2.621-.979l12.914-11.201c1.336-1.158 1.752-3.057 1.023-4.67l-12.843-28.412v-3.138c0-5.208-3.354-9.606-8-11.263v-32.737c0-2.209-1.791-4-4-4s-4 1.791-4 4v32.737c-4.646 1.656-8 6.055-8 11.263v3.212l-11.699 28.467c-.643 1.562-.232 3.361 1.023 4.492zm10.676-50.973c2.205 0 4 1.795 4 4h-8c0-2.205 1.795-4 4-4zm-5.318 12h10.736l9.041 20h-14.459c-2.209 0-4 1.791-4 4s1.791 4 4 4h11.865l-5.031 4.363-13.258-.326-8.805-7.926z"/><path d="m67.324 120.973c.709.639 1.623 1.002 2.578 1.025l16.285.4c.033.002.064.002.098.002.961 0 1.893-.348 2.621-.979l12.914-11.201c1.336-1.158 1.752-3.057 1.023-4.67l-12.843-28.412v-3.138c0-5.208-3.354-9.606-8-11.263v-32.737c0-2.209-1.791-4-4-4s-4 1.791-4 4v32.737c-4.646 1.656-8 6.055-8 11.263v3.212l-11.699 28.468c-.643 1.562-.232 3.361 1.023 4.492zm10.676-50.973c2.205 0 4 1.795 4 4h-8c0-2.205 1.795-4 4-4zm-5.318 12h10.736l9.041 20h-14.459c-2.209 0-4 1.791-4 4s1.791 4 4 4h11.865l-5.031 4.363-13.258-.326-8.805-7.926z"/></svg>